<svg width="28" height="28" viewBox="0 0 28 28" fill="none" xmlns="http://www.w3.org/2000/svg">
<circle cx="14" cy="14" r="14" fill="#535861"/>
<path d="M20.6468 18.2199C20.6468 18.4599 20.5935 18.7066 20.4802 18.9466C20.3668 19.1866 20.2202 19.4133 20.0268 19.6266C19.7002 19.9866 19.3402 20.2466 18.9335 20.4133C18.5335 20.5799 18.1002 20.6666 17.6335 20.6666C16.9535 20.6666 16.2268 20.5066 15.4602 20.1799C14.6935 19.8533 13.9268 19.4133 13.1668 18.8599C12.4002 18.2999 11.6735 17.6799 10.9802 16.9933C10.2935 16.2999 9.6735 15.5733 9.12016 14.8133C8.5735 14.0533 8.1335 13.2933 7.8135 12.5399C7.4935 11.7799 7.3335 11.0533 7.3335 10.3599C7.3335 9.90659 7.4135 9.47325 7.5735 9.07325C7.7335 8.66659 7.98683 8.29325 8.34016 7.95992C8.76683 7.53992 9.2335 7.33325 9.72683 7.33325C9.9135 7.33325 10.1002 7.37325 10.2668 7.45325C10.4402 7.53325 10.5935 7.65325 10.7135 7.82659L12.2602 10.0066C12.3802 10.1733 12.4668 10.3266 12.5268 10.4733C12.5868 10.6133 12.6202 10.7533 12.6202 10.8799C12.6202 11.0399 12.5735 11.1999 12.4802 11.3533C12.3935 11.5066 12.2668 11.6666 12.1068 11.8266L11.6002 12.3533C11.5268 12.4266 11.4935 12.5133 11.4935 12.6199C11.4935 12.6733 11.5002 12.7199 11.5135 12.7733C11.5335 12.8266 11.5535 12.8666 11.5668 12.9066C11.6868 13.1266 11.8935 13.4133 12.1868 13.7599C12.4868 14.1066 12.8068 14.4599 13.1535 14.8133C13.5135 15.1666 13.8602 15.4933 14.2135 15.7933C14.5602 16.0866 14.8468 16.2866 15.0735 16.4066C15.1068 16.4199 15.1468 16.4399 15.1935 16.4599C15.2468 16.4799 15.3002 16.4866 15.3602 16.4866C15.4735 16.4866 15.5602 16.4466 15.6335 16.3733L16.1402 15.8733C16.3068 15.7066 16.4668 15.5799 16.6202 15.4999C16.7735 15.4066 16.9268 15.3599 17.0935 15.3599C17.2202 15.3599 17.3535 15.3866 17.5002 15.4466C17.6468 15.5066 17.8002 15.5933 17.9668 15.7066L20.1735 17.2733C20.3468 17.3933 20.4668 17.5333 20.5402 17.6999C20.6068 17.8666 20.6468 18.0333 20.6468 18.2199Z" stroke="white" stroke-width="1.5" stroke-miterlimit="10"/>
</svg>
